<?xml version="1.0" encoding="utf-8"?>
<svg id="master-artboard" viewBox="0 0 1068.9 669.5" version="1.1" xmlns="http://www.w3.org/2000/svg" x="0px" y="0px" width="1068.9000244140625px" height="669.5px" enable-background="new 0 0 1400 980"><rect id="ee-background" x="0" y="0" width="1068.9000244140625" height="669.5" style="fill: rgb(217, 217, 217); fill-opacity: 1; pointer-events: none;"/><defs><style id="ee-google-fonts">@import url(https://fonts.googleapis.com/css?family=Allerta+Stencil:400|Original+Surfer:400);</style><linearGradient id="gradient-0" gradientUnits="userSpaceOnUse" x1="472.9609375" y1="410.203125" x2="472.9609375" y2="440.1875">
                <stop offset="0" style="stop-color: #33220b"/>
                <stop offset="1" style="stop-color: #000000"/>
              </linearGradient><linearGradient id="gradient-1" gradientUnits="userSpaceOnUse" x1="472.9609375" y1="410.1875" x2="472.9609375" y2="440.046875" gradientTransform="matrix(0.9622602568595626, -0.2721291275572886, 0.09776879599251387, 0.3457076695345854, -21.58050053950977, 409.8889464779667)">
                <stop offset="0" style="stop-color: #c9872b"/>
                <stop offset="1" style="stop-color: #754f19"/>
              </linearGradient><linearGradient id="gradient-2" gradientUnits="userSpaceOnUse" x1="472.9609375" y1="410.1875" x2="472.9609375" y2="440.046875" gradientTransform="matrix(0.7952109229088016, -0.6063321852439719, 0.2406589350752554, 0.31562668829518203, -3.654506303153113, 582.0892405066534)">
                <stop offset="0" style="stop-color: #e49931"/>
                <stop offset="1" style="stop-color: #9b6314"/>
              </linearGradient><linearGradient id="gradient-3" gradientUnits="userSpaceOnUse" x1="472.9609375" y1="410.1875" x2="472.9609375" y2="440.046875" gradientTransform="matrix(0.9919393039343822, -0.12671618929307293, 0.0451223178744006, 0.3532285993073958, -10.65401169297381, 337.355572349245)">
                <stop offset="0" style="stop-color: #ed9d26"/>
                <stop offset="1" style="stop-color: #a0650d"/>
              </linearGradient></defs>

<path d="M 700 222.6999969482422 L 700 222.6999969482422 L 700 222.6999969482422 Z" fill="#66422E" transform="matrix(1, 0, 0, 1, -214.38497924804688, -46.34355163574219)"/><path d="M 700 222.6999969482422 L 700 222.6999969482422 L 700 222.6999969482422 Z" fill="#66422E" transform="matrix(1, 0, 0, 1, -214.38497924804688, -46.34355163574219)"/>

<g transform="matrix(1.251150369644165, 0, 0, 1.251150369644165, -285.5559310913086, -541.6331939697266)">
		
		
		
		
		
		
		
		
		
		
		
	<path d="M 314.5236511230469 863.0499877929688 C 314.16363525390625 862.6500244140625 313.7803039550781 862.3466796875 313.3736572265625 862.1400146484375 C 312.96697998046875 861.9400024414062 312.5303039550781 861.8233642578125 312.06365966796875 861.7899780273438 L 312.06365966796875 859.469970703125 C 313.810302734375 859.5499877929688 315.2769775390625 860.1666870117188 316.4636535644531 861.3200073242188 L 314.5236511230469 863.0499877929688 M 312.06365966796875 874.7999877929688 C 312.5303039550781 874.7533569335938 312.9703063964844 874.6266479492188 313.3836364746094 874.4199829101562 C 313.7969665527344 874.219970703125 314.1769714355469 873.92333984375 314.5236511230469 873.530029296875 L 316.4636535644531 875.239990234375 C 315.87030029296875 875.8200073242188 315.20697021484375 876.2666625976562 314.4736328125 876.5800170898438 C 313.7403259277344 876.893310546875 312.9369812011719 877.0733032226562 312.06365966796875 877.1199951171875 L 312.06365966796875 874.7999877929688 M 304.4636535644531 868.280029296875 C 304.4636535644531 866.893310546875 304.6336364746094 865.6666870117188 304.9736328125 864.5999755859375 C 305.3069763183594 863.5399780273438 305.77032470703125 862.643310546875 306.3636474609375 861.9099731445312 C 306.95697021484375 861.1699829101562 307.656982421875 860.5999755859375 308.4636535644531 860.2000122070312 C 309.2636413574219 859.7933349609375 310.14031982421875 859.5499877929688 311.0936584472656 859.469970703125 L 311.0936584472656 861.8099975585938 C 310.580322265625 861.8900146484375 310.09698486328125 862.066650390625 309.6436462402344 862.3400268554688 C 309.1903076171875 862.6133422851562 308.79364013671875 863.0066528320312 308.4536437988281 863.52001953125 C 308.10699462890625 864.0399780273438 307.83697509765625 864.693359375 307.6436462402344 865.47998046875 C 307.4436340332031 866.2666625976562 307.33697509765625 867.2000122070312 307.3236389160156 868.280029296875 C 307.33697509765625 869.3733520507812 307.4436340332031 870.3099975585938 307.6436462402344 871.0900268554688 C 307.83697509765625 871.8766479492188 308.10699462890625 872.5333251953125 308.4536437988281 873.0599975585938 C 308.79364013671875 873.5933227539062 309.1936340332031 874 309.6536560058594 874.280029296875 C 310.1136474609375 874.5599975585938 310.5936584472656 874.7333374023438 311.0936584472656 874.7999877929688 L 311.0936584472656 877.0900268554688 C 310.14031982421875 877.030029296875 309.2636413574219 876.7966918945312 308.4636535644531 876.3900146484375 C 307.656982421875 875.9833374023438 306.95697021484375 875.413330078125 306.3636474609375 874.6799926757812 C 305.77032470703125 873.9466552734375 305.3069763183594 873.0433349609375 304.9736328125 871.969970703125 C 304.6336364746094 870.9033203125 304.4636535644531 869.67333984375 304.4636535644531 868.280029296875 ZM 334.64727783203125 877 L 331.7472839355469 877 L 327.26727294921875 864.0599975585938 L 322.7472839355469 877 L 319.8172912597656 877 L 325.8572692871094 859.75 L 328.64727783203125 859.75 L 334.64727783203125 877 M 328.8172912597656 871.52001953125 L 329.4972839355469 873.4099731445312 L 325.01727294921875 873.4099731445312 L 325.6772766113281 871.52001953125 L 328.8172912597656 871.52001953125 ZM 351.4730529785156 859.72998046875 L 351.4730529785156 877 L 348.6630554199219 877 L 348.6630554199219 869.219970703125 L 342.1430358886719 869.219970703125 L 342.1430358886719 867.2999877929688 L 348.6630554199219 867.2999877929688 L 348.6630554199219 859.72998046875 L 351.4730529785156 859.72998046875 M 338.32305908203125 859.72998046875 L 341.18304443359375 859.72998046875 L 341.18304443359375 877 L 338.32305908203125 877 L 338.32305908203125 859.72998046875 ZM 369.9844665527344 877 L 367.08447265625 877 L 362.6044616699219 864.0599975585938 L 358.08447265625 877 L 355.15447998046875 877 L 361.1944580078125 859.75 L 363.9844665527344 859.75 L 369.9844665527344 877 M 364.15447998046875 871.52001953125 L 364.83447265625 873.4099731445312 L 360.3544616699219 873.4099731445312 L 361.01446533203125 871.52001953125 L 364.15447998046875 871.52001953125 ZM 382.3802185058594 859.72998046875 L 385.5902099609375 859.72998046875 L 380.460205078125 869.969970703125 L 380.460205078125 877 L 377.6002197265625 877 L 377.6002197265625 871.22998046875 L 382.3802185058594 859.72998046875 M 375.9402160644531 859.72998046875 L 378.5401916503906 866.4500122070312 L 377.27020263671875 869.52001953125 L 372.7301940917969 859.72998046875 L 375.9402160644531 859.72998046875 ZM 403.118896484375 877 L 400.2189025878906 877 L 395.7388916015625 864.0599975585938 L 391.2189025878906 877 L 388.2889099121094 877 L 394.3288879394531 859.75 L 397.118896484375 859.75 L 403.118896484375 877 M 397.2889099121094 871.52001953125 L 397.9689025878906 873.4099731445312 L 393.4888916015625 873.4099731445312 L 394.1488952636719 871.52001953125 L 397.2889099121094 871.52001953125 ZM 427.3253479003906 877 L 424.42535400390625 877 L 419.9453430175781 864.0599975585938 L 415.42535400390625 877 L 412.495361328125 877 L 418.53533935546875 859.75 L 421.3253479003906 859.75 L 427.3253479003906 877 M 421.495361328125 871.52001953125 L 422.17535400390625 873.4099731445312 L 417.6953430175781 873.4099731445312 L 418.3553466796875 871.52001953125 L 421.495361328125 871.52001953125 ZM 440.4767761230469 863.0499877929688 C 440.0967712402344 862.5966796875 439.6667785644531 862.27001953125 439.186767578125 862.0700073242188 C 438.7001037597656 861.8699951171875 438.2001037597656 861.77001953125 437.686767578125 861.77001953125 L 437.5867614746094 861.77001953125 L 437.5867614746094 859.4500122070312 L 437.61676025390625 859.4500122070312 C 438.55010986328125 859.4500122070312 439.4234313964844 859.6033325195312 440.2367858886719 859.9099731445312 C 441.05010986328125 860.2233276367188 441.7767639160156 860.693359375 442.4167785644531 861.3200073242188 L 440.4767761230469 863.0499877929688 M 430.4167785644531 868.280029296875 C 430.4167785644531 866.9400024414062 430.57342529296875 865.75 430.88677978515625 864.7100219726562 C 431.2001037597656 863.6699829101562 431.6300964355469 862.7866821289062 432.1767578125 862.0599975585938 C 432.72344970703125 861.3333129882812 433.3800964355469 860.760009765625 434.1467590332031 860.3400268554688 C 434.9134521484375 859.913330078125 435.7401123046875 859.6466674804688 436.62677001953125 859.5399780273438 L 436.62677001953125 861.8800048828125 C 436.16009521484375 862.0066528320312 435.7267761230469 862.219970703125 435.3267822265625 862.52001953125 C 434.9267578125 862.8133544921875 434.5767822265625 863.2233276367188 434.2767639160156 863.75 C 433.9700927734375 864.27001953125 433.7301025390625 864.9000244140625 433.5567626953125 865.6400146484375 C 433.3834533691406 866.3866577148438 433.29010009765625 867.2666625976562 433.2767639160156 868.280029296875 C 433.29010009765625 869.2933349609375 433.3834533691406 870.183349609375 433.5567626953125 870.9500122070312 C 433.7301025390625 871.7166748046875 433.9700927734375 872.3766479492188 434.2767639160156 872.9299926757812 C 434.5767822265625 873.489990234375 434.9267578125 873.933349609375 435.3267822265625 874.260009765625 C 435.7267761230469 874.586669921875 436.16009521484375 874.8133544921875 436.62677001953125 874.9400024414062 L 436.62677001953125 877.0700073242188 C 435.7401123046875 876.9633178710938 434.9134521484375 876.693359375 434.1467590332031 876.260009765625 C 433.3800964355469 875.8333129882812 432.72344970703125 875.2533569335938 432.1767578125 874.52001953125 C 431.6300964355469 873.780029296875 431.2001037597656 872.893310546875 430.88677978515625 871.8599853515625 C 430.57342529296875 870.8200073242188 430.4167785644531 869.6266479492188 430.4167785644531 868.280029296875 M 443.3067626953125 868.0900268554688 L 443.3067626953125 874.77001953125 C 442.94677734375 875.2233276367188 442.5467834472656 875.5966796875 442.1067810058594 875.8900146484375 C 441.66009521484375 876.1766967773438 441.1900939941406 876.413330078125 440.69677734375 876.5999755859375 C 440.20343017578125 876.7866821289062 439.69677734375 876.9199829101562 439.1767578125 877 C 438.6501159667969 877.0800170898438 438.1300964355469 877.1199951171875 437.61676025390625 877.1199951171875 L 437.5867614746094 877.1199951171875 L 437.5867614746094 875.0499877929688 C 437.7734375 875.0499877929688 438.0034484863281 875.0399780273438 438.2767639160156 875.02001953125 C 438.5567626953125 874.9933471679688 438.8401184082031 874.9533081054688 439.12677001953125 874.9000244140625 C 439.4134521484375 874.8466796875 439.686767578125 874.7733154296875 439.94677734375 874.6799926757812 C 440.206787109375 874.586669921875 440.3967590332031 874.4533081054688 440.51678466796875 874.280029296875 L 440.51678466796875 870.02001953125 L 437.5867614746094 870.02001953125 L 437.5867614746094 868.0900268554688 L 443.3067626953125 868.0900268554688 ZM 449.9842834472656 868 C 449.9842834472656 869.2000122070312 450.06427001953125 870.219970703125 450.2242736816406 871.0599975585938 C 450.37762451171875 871.893310546875 450.6042785644531 872.5800170898438 450.904296875 873.1199951171875 C 451.1976318359375 873.6599731445312 451.55096435546875 874.0633544921875 451.96429443359375 874.3300170898438 C 452.37762451171875 874.5966796875 452.84429931640625 874.7533569335938 453.3642883300781 874.7999877929688 L 453.3642883300781 877.1199951171875 C 452.41094970703125 877.0533447265625 451.547607421875 876.8233032226562 450.7742919921875 876.4299926757812 C 450.0009460449219 876.030029296875 449.3476257324219 875.4566650390625 448.81427001953125 874.7100219726562 C 448.28094482421875 873.969970703125 447.86761474609375 873.0599975585938 447.57427978515625 871.97998046875 C 447.2742919921875 870.9066772460938 447.1242980957031 869.67333984375 447.1242980957031 868.280029296875 L 447.1242980957031 859.72998046875 L 449.9842834472656 859.72998046875 L 449.9842834472656 868 M 460.5542907714844 859.72998046875 L 460.5542907714844 868.280029296875 C 460.5542907714844 869.67333984375 460.4076232910156 870.9066772460938 460.1142883300781 871.97998046875 C 459.81427001953125 873.0599975585938 459.394287109375 873.969970703125 458.8542785644531 874.7100219726562 C 458.31427001953125 875.4566650390625 457.6642761230469 876.030029296875 456.904296875 876.4299926757812 C 456.1376037597656 876.8233032226562 455.2776184082031 877.0533447265625 454.32427978515625 877.1199951171875 L 454.32427978515625 874.7999877929688 C 454.8376159667969 874.7333374023438 455.30096435546875 874.5733032226562 455.71429443359375 874.3200073242188 C 456.12762451171875 874.0599975585938 456.4842834472656 873.663330078125 456.7842712402344 873.1300048828125 C 457.0776062011719 872.6033325195312 457.3076171875 871.9199829101562 457.4742736816406 871.0800170898438 C 457.6409606933594 870.2466430664062 457.7242736816406 869.219970703125 457.7242736816406 868 L 457.7242736816406 859.72998046875 L 460.5542907714844 859.72998046875 ZM 474.2645263671875 859.72998046875 L 477.12451171875 859.72998046875 L 477.12451171875 877 L 474.2645263671875 877 L 468.45452880859375 866.780029296875 L 468.45452880859375 861.3900146484375 L 474.2645263671875 871.6300048828125 L 474.2645263671875 859.72998046875 M 464.634521484375 877 L 464.634521484375 859.72998046875 L 467.4945068359375 859.72998046875 L 467.4945068359375 877 L 464.634521484375 877 ZM 491.1626281738281 863.0499877929688 C 490.7826232910156 862.5966796875 490.3526306152344 862.27001953125 489.87261962890625 862.0700073242188 C 489.3859558105469 861.8699951171875 488.8859558105469 861.77001953125 488.37261962890625 861.77001953125 L 488.2726135253906 861.77001953125 L 488.2726135253906 859.4500122070312 L 488.3026123046875 859.4500122070312 C 489.2359619140625 859.4500122070312 490.1092834472656 859.6033325195312 490.9226379394531 859.9099731445312 C 491.7359619140625 860.2233276367188 492.4626159667969 860.693359375 493.1026306152344 861.3200073242188 L 491.1626281738281 863.0499877929688 M 481.1026306152344 868.280029296875 C 481.1026306152344 866.9400024414062 481.25927734375 865.75 481.5726318359375 864.7100219726562 C 481.8859558105469 863.6699829101562 482.3159484863281 862.7866821289062 482.86260986328125 862.0599975585938 C 483.4093017578125 861.3333129882812 484.0659484863281 860.760009765625 484.8326110839844 860.3400268554688 C 485.59930419921875 859.913330078125 486.42596435546875 859.6466674804688 487.3126220703125 859.5399780273438 L 487.3126220703125 861.8800048828125 C 486.845947265625 862.0066528320312 486.4126281738281 862.219970703125 486.01263427734375 862.52001953125 C 485.61260986328125 862.8133544921875 485.26263427734375 863.2233276367188 484.9626159667969 863.75 C 484.65594482421875 864.27001953125 484.41595458984375 864.9000244140625 484.24261474609375 865.6400146484375 C 484.0693054199219 866.3866577148438 483.9759521484375 867.2666625976562 483.9626159667969 868.280029296875 C 483.9759521484375 869.2933349609375 484.0693054199219 870.183349609375 484.24261474609375 870.9500122070312 C 484.41595458984375 871.7166748046875 484.65594482421875 872.3766479492188 484.9626159667969 872.9299926757812 C 485.26263427734375 873.489990234375 485.61260986328125 873.933349609375 486.01263427734375 874.260009765625 C 486.4126281738281 874.586669921875 486.845947265625 874.8133544921875 487.3126220703125 874.9400024414062 L 487.3126220703125 877.0700073242188 C 486.42596435546875 876.9633178710938 485.59930419921875 876.693359375 484.8326110839844 876.260009765625 C 484.0659484863281 875.8333129882812 483.4093017578125 875.2533569335938 482.86260986328125 874.52001953125 C 482.3159484863281 873.780029296875 481.8859558105469 872.893310546875 481.5726318359375 871.8599853515625 C 481.25927734375 870.8200073242188 481.1026306152344 869.6266479492188 481.1026306152344 868.280029296875 M 493.99261474609375 868.0900268554688 L 493.99261474609375 874.77001953125 C 493.63262939453125 875.2233276367188 493.2326354980469 875.5966796875 492.7926330566406 875.8900146484375 C 492.345947265625 876.1766967773438 491.8759460449219 876.413330078125 491.38262939453125 876.5999755859375 C 490.8892822265625 876.7866821289062 490.38262939453125 876.9199829101562 489.86260986328125 877 C 489.3359680175781 877.0800170898438 488.8159484863281 877.1199951171875 488.3026123046875 877.1199951171875 L 488.2726135253906 877.1199951171875 L 488.2726135253906 875.0499877929688 C 488.45928955078125 875.0499877929688 488.6893005371094 875.0399780273438 488.9626159667969 875.02001953125 C 489.24261474609375 874.9933471679688 489.5259704589844 874.9533081054688 489.8126220703125 874.9000244140625 C 490.09930419921875 874.8466796875 490.37261962890625 874.7733154296875 490.63262939453125 874.6799926757812 C 490.89263916015625 874.586669921875 491.0826110839844 874.4533081054688 491.20263671875 874.280029296875 L 491.20263671875 870.02001953125 L 488.2726135253906 870.02001953125 L 488.2726135253906 868.0900268554688 L 493.99261474609375 868.0900268554688 ZM 518.620849609375 877 L 515.7208251953125 877 L 511.2408447265625 864.0599975585938 L 506.7208557128906 877 L 503.7908630371094 877 L 509.8308410644531 859.75 L 512.620849609375 859.75 L 518.620849609375 877 M 512.7908325195312 871.52001953125 L 513.4708251953125 873.4099731445312 L 508.9908447265625 873.4099731445312 L 509.6508483886719 871.52001953125 L 512.7908325195312 871.52001953125 ZM 525.1365966796875 859.72998046875 L 525.1365966796875 874.8699951171875 L 533.0765991210938 874.8699951171875 L 533.0765991210938 877 L 522.276611328125 877 L 522.276611328125 859.72998046875 L 525.1365966796875 859.72998046875 ZM 538.5615844726562 868 C 538.5615844726562 869.2000122070312 538.6415405273438 870.219970703125 538.8015747070312 871.0599975585938 C 538.9548950195312 871.893310546875 539.1815795898438 872.5800170898438 539.4815673828125 873.1199951171875 C 539.77490234375 873.6599731445312 540.1282348632812 874.0633544921875 540.5415649414062 874.3300170898438 C 540.9548950195312 874.5966796875 541.4215698242188 874.7533569335938 541.9415283203125 874.7999877929688 L 541.9415283203125 877.1199951171875 C 540.9882202148438 877.0533447265625 540.1248779296875 876.8233032226562 539.3515625 876.4299926757812 C 538.5782470703125 876.030029296875 537.9248657226562 875.4566650390625 537.3915405273438 874.7100219726562 C 536.8582153320312 873.969970703125 536.4448852539062 873.0599975585938 536.1515502929688 871.97998046875 C 535.8515625 870.9066772460938 535.7015380859375 869.67333984375 535.7015380859375 868.280029296875 L 535.7015380859375 859.72998046875 L 538.5615844726562 859.72998046875 L 538.5615844726562 868 M 549.1315307617188 859.72998046875 L 549.1315307617188 868.280029296875 C 549.1315307617188 869.67333984375 548.98486328125 870.9066772460938 548.6915283203125 871.97998046875 C 548.3915405273438 873.0599975585938 547.9715576171875 873.969970703125 547.4315795898438 874.7100219726562 C 546.8915405273438 875.4566650390625 546.2415771484375 876.030029296875 545.4815673828125 876.4299926757812 C 544.7149047851562 876.8233032226562 543.8548583984375 877.0533447265625 542.9015502929688 877.1199951171875 L 542.9015502929688 874.7999877929688 C 543.4149169921875 874.7333374023438 543.8782348632812 874.5733032226562 544.2915649414062 874.3200073242188 C 544.7048950195312 874.0599975585938 545.0615844726562 873.663330078125 545.361572265625 873.1300048828125 C 545.6549072265625 872.6033325195312 545.8848876953125 871.9199829101562 546.0515747070312 871.0800170898438 C 546.2182006835938 870.2466430664062 546.3015747070312 869.219970703125 546.3015747070312 868 L 546.3015747070312 859.72998046875 L 549.1315307617188 859.72998046875 ZM 553.2117919921875 859.72998046875 L 556.0718383789062 859.72998046875 L 560.7117919921875 870.3900146484375 L 560.7117919921875 874.72998046875 L 559.9617919921875 874.72998046875 L 556.0718383789062 865.1199951171875 L 556.0718383789062 877 L 553.2117919921875 877 L 553.2117919921875 859.72998046875 M 566.3118286132812 859.72998046875 L 569.1718139648438 859.72998046875 L 569.1718139648438 877 L 566.3118286132812 877 L 566.3118286132812 865.1199951171875 L 562.4418334960938 874.72998046875 L 561.6718139648438 874.72998046875 L 561.6718139648438 870.4400024414062 L 566.3118286132812 859.72998046875 ZM 576.3814697265625 877 L 573.521484375 877 L 573.521484375 859.72998046875 L 576.3814697265625 859.72998046875 L 576.3814697265625 877 ZM 590.328857421875 859.72998046875 L 593.1889038085938 859.72998046875 L 593.1889038085938 877 L 590.328857421875 877 L 584.5188598632812 866.780029296875 L 584.5188598632812 861.3900146484375 L 590.328857421875 871.6300048828125 L 590.328857421875 859.72998046875 M 580.6988525390625 877 L 580.6988525390625 859.72998046875 L 583.5588989257812 859.72998046875 L 583.5588989257812 877 L 580.6988525390625 877 ZM 600.3770141601562 877 L 597.5170288085938 877 L 597.5170288085938 859.72998046875 L 600.3770141601562 859.72998046875 L 600.3770141601562 877 ZM 607.314453125 868 C 607.314453125 869.2000122070312 607.3944091796875 870.219970703125 607.554443359375 871.0599975585938 C 607.707763671875 871.893310546875 607.9344482421875 872.5800170898438 608.2344360351562 873.1199951171875 C 608.5277709960938 873.6599731445312 608.881103515625 874.0633544921875 609.29443359375 874.3300170898438 C 609.707763671875 874.5966796875 610.1744384765625 874.7533569335938 610.6943969726562 874.7999877929688 L 610.6943969726562 877.1199951171875 C 609.7410888671875 877.0533447265625 608.8777465820312 876.8233032226562 608.1044311523438 876.4299926757812 C 607.3311157226562 876.030029296875 606.677734375 875.4566650390625 606.1444091796875 874.7100219726562 C 605.611083984375 873.969970703125 605.19775390625 873.0599975585938 604.9044189453125 871.97998046875 C 604.6044311523438 870.9066772460938 604.4544067382812 869.67333984375 604.4544067382812 868.280029296875 L 604.4544067382812 859.72998046875 L 607.314453125 859.72998046875 L 607.314453125 868 M 617.8843994140625 859.72998046875 L 617.8843994140625 868.280029296875 C 617.8843994140625 869.67333984375 617.7377319335938 870.9066772460938 617.4443969726562 871.97998046875 C 617.1444091796875 873.0599975585938 616.7244262695312 873.969970703125 616.1844482421875 874.7100219726562 C 615.6444091796875 875.4566650390625 614.9944458007812 876.030029296875 614.2344360351562 876.4299926757812 C 613.4677734375 876.8233032226562 612.6077880859375 877.0533447265625 611.6544189453125 877.1199951171875 L 611.6544189453125 874.7999877929688 C 612.1677856445312 874.7333374023438 612.631103515625 874.5733032226562 613.04443359375 874.3200073242188 C 613.457763671875 874.0599975585938 613.814453125 873.663330078125 614.1144409179688 873.1300048828125 C 614.4077758789062 872.6033325195312 614.6377563476562 871.9199829101562 614.804443359375 871.0800170898438 C 614.9710693359375 870.2466430664062 615.054443359375 869.219970703125 615.054443359375 868 L 615.054443359375 859.72998046875 L 617.8843994140625 859.72998046875 ZM 621.964599609375 859.72998046875 L 624.8246459960938 859.72998046875 L 629.464599609375 870.3900146484375 L 629.464599609375 874.72998046875 L 628.714599609375 874.72998046875 L 624.8246459960938 865.1199951171875 L 624.8246459960938 877 L 621.964599609375 877 L 621.964599609375 859.72998046875 M 635.0646362304688 859.72998046875 L 637.9246215820312 859.72998046875 L 637.9246215820312 877 L 635.0646362304688 877 L 635.0646362304688 865.1199951171875 L 631.1946411132812 874.72998046875 L 630.4246215820312 874.72998046875 L 630.4246215820312 870.4400024414062 L 635.0646362304688 859.72998046875 Z" transform="matrix(1.8238506317138672, 0, 0, 1.8238506317138672, -249.30491638183594, -696.8746337890625)" style="fill: rgb(102, 66, 46); white-space: pre; color: rgb(102, 66, 46); fill-opacity: 1;"/></g><path fill="#CB8000" d="M271.5,591.2L159.3,760.1h224.3L271.5,591.2z M271.5,667.4l38.8,58.4h-77.5L271.5,667.4z" transform="matrix(2.5011916160583496, 0, 0, 2.5011916160583496, -197.55886268615723, -1372.5069732666016)"/><path d="M 271.5 591.2000122070312 L 271.5 667.4000244140625 L 212.3000030517578 680.4000244140625 Z" fill="#FEC158" transform="matrix(2.5011916160583496, 0, 0, 2.5011916160583496, -197.55886268615723, -1372.5069732666016)" style="fill: rgb(237, 157, 38);"/><path d="M 271.5 667.4000244140625 L 232.6999969482422 725.7999877929688 L 212.3000030517578 680.4000244140625 Z" fill="#66422E" transform="matrix(2.5011916160583496, 0, 0, 2.5011916160583496, -197.55886268615723, -1372.5069732666016)"/><path d="M 212.3000030517578 680.4000244140625 L 232.6999969482422 725.7999877929688 L 159.3000030517578 760.0999755859375 Z" fill="#E0A280" transform="matrix(2.5011916160583496, 0, 0, 2.5011916160583496, -197.55886268615723, -1372.5069732666016)"/><path d="M 232.6999969482422 725.7999877929688 L 259.1000061035156 760 L 159.3000030517578 760.0999755859375 Z" fill="#66422E" transform="matrix(2.5011916160583496, 0, 0, 2.5011916160583496, -197.55886268615723, -1372.5069732666016)"/><path d="M 259.1000061035156 760 L 310.20001220703125 725.7999877929688 L 383.6000061035156 760.0999755859375 Z" fill="#FEC158" transform="matrix(2.5011916160583496, 0, 0, 2.5011916160583496, -197.55886268615723, -1372.5069732666016)" style="fill: rgb(237, 157, 38);"/><path d="M 310.20001220703125 725.7999877929688 L 328.6000061035156 678.5 L 271.5 667.4000244140625 Z" fill="#E0A280" transform="matrix(2.5011916160583496, 0, 0, 2.5011916160583496, -197.55886268615723, -1372.5069732666016)"/><path d="M 271.5 667.4000244140625 L 300 634.2000122070312 L 328.6000061035156 678.5 Z" fill="#66422E" transform="matrix(2.5011916160583496, 0, 0, 2.5011916160583496, -197.55886268615723, -1372.5069732666016)"/>


<path d="M 481.9869689941406 423.1199951171875 L 478.2469787597656 423.32000732421875 C 478.233642578125 422.586669921875 478.12030029296875 421.8733215332031 477.906982421875 421.17999267578125 C 477.6936340332031 420.4866638183594 477.38031005859375 419.8666687011719 476.96697998046875 419.32000732421875 C 476.5469665527344 418.7799987792969 476.0303039550781 418.34332275390625 475.4169921875 418.010009765625 C 474.80364990234375 417.6766662597656 474.0903015136719 417.510009765625 473.2769775390625 417.510009765625 C 472.56365966796875 417.510009765625 471.9302978515625 417.6266784667969 471.3769836425781 417.8599853515625 C 470.8236389160156 418.086669921875 470.3336486816406 418.39666748046875 469.906982421875 418.7900085449219 C 469.4803161621094 419.1766662597656 469.1169738769531 419.63665771484375 468.8169860839844 420.1700134277344 C 468.5169677734375 420.6966552734375 468.2736511230469 421.2533264160156 468.08697509765625 421.8399963378906 C 467.9002990722656 422.4333190917969 467.7636413574219 423.0433349609375 467.6769714355469 423.6700134277344 C 467.5903015136719 424.2966613769531 467.5469665527344 424.90667724609375 467.5469665527344 425.5 C 467.5469665527344 426.1266784667969 467.5836486816406 426.7633361816406 467.656982421875 427.4100036621094 C 467.7303161621094 428.04998779296875 467.8536376953125 428.67333984375 468.0269775390625 429.2799987792969 C 468.2003173828125 429.88665771484375 468.4302978515625 430.4566650390625 468.71697998046875 430.989990234375 C 468.9969787597656 431.5299987792969 469.3503112792969 431.9966735839844 469.7769775390625 432.3900146484375 C 470.2036437988281 432.7900085449219 470.7036437988281 433.1066589355469 471.2769775390625 433.3399963378906 C 471.8503112792969 433.5666809082031 472.5169677734375 433.67999267578125 473.2769775390625 433.67999267578125 C 474.0903015136719 433.67999267578125 474.7969665527344 433.5366516113281 475.39697265625 433.25 C 475.9903259277344 432.9633483886719 476.4869689941406 432.5733337402344 476.8869934082031 432.0799865722656 C 477.2869873046875 431.586669921875 477.5903015136719 431.0133361816406 477.7969665527344 430.3599853515625 C 478.01031494140625 429.70001220703125 478.1369934082031 429.0033264160156 478.1769714355469 428.2699890136719 L 481.84698486328125 428.4599914550781 C 481.5469665527344 429.4333190917969 481.1136474609375 430.3166809082031 480.5469665527344 431.1099853515625 C 479.9803161621094 431.89666748046875 479.3203125 432.5666809082031 478.5669860839844 433.1199951171875 C 477.81365966796875 433.67333984375 476.97698974609375 434.1000061035156 476.0569763183594 434.3999938964844 C 475.1436462402344 434.6933288574219 474.1869812011719 434.8399963378906 473.1869812011719 434.8399963378906 C 471.8003234863281 434.8399963378906 470.560302734375 434.6099853515625 469.46697998046875 434.1499938964844 C 468.3669738769531 433.6833190917969 467.43365478515625 433.0366516113281 466.6669921875 432.2099914550781 C 465.8936462402344 431.3766784667969 465.30364990234375 430.3900146484375 464.89697265625 429.25 C 464.483642578125 428.1099853515625 464.2769775390625 426.8599853515625 464.2769775390625 425.5 C 464.2769775390625 424.20001220703125 464.49365234375 422.989990234375 464.9269714355469 421.8699951171875 C 465.3603210449219 420.75665283203125 465.9703063964844 419.7900085449219 466.7569885253906 418.9700012207031 C 467.54364013671875 418.15667724609375 468.483642578125 417.51666259765625 469.57696533203125 417.04998779296875 C 470.6703186035156 416.5899963378906 471.8736572265625 416.3599853515625 473.1869812011719 416.3599853515625 C 474.233642578125 416.3599853515625 475.233642578125 416.51666259765625 476.1869812011719 416.8299865722656 C 477.14697265625 417.13665771484375 478.0136413574219 417.5799865722656 478.7869873046875 418.1600036621094 C 479.5669860839844 418.7466735839844 480.233642578125 419.4566650390625 480.7869873046875 420.2900085449219 C 481.34698486328125 421.1233215332031 481.7469787597656 422.0666809082031 481.9869689941406 423.1199951171875 Z" transform="matrix(5.475755214691162, 0, 0, 5.475755214691162, -2110.10986328125, -1938.797607421875)" style="fill: url('#gradient-3'); white-space: pre; color: rgb(51, 34, 11);"/></svg>