<?xml version="1.0" encoding="utf-8"?>
<svg id="master-artboard" viewBox="0 0 1068.9 669.5" version="1.1" xmlns="http://www.w3.org/2000/svg" x="0px" y="0px" width="1068.9000244140625px" height="669.5px" enable-background="new 0 0 1400 980"><rect id="ee-background" x="0" y="0" width="1068.9000244140625" height="669.5" style="fill: rgb(217, 217, 217); fill-opacity: 1; pointer-events: none;"/><defs><style id="ee-google-fonts">@import url(https://fonts.googleapis.com/css?family=Allerta+Stencil:400|Original+Surfer:400);</style><linearGradient id="gradient-0" gradientUnits="userSpaceOnUse" x1="472.9609375" y1="410.203125" x2="472.9609375" y2="440.1875">
                <stop offset="0" style="stop-color: #33220b"/>
                <stop offset="1" style="stop-color: #000000"/>
              </linearGradient><linearGradient id="gradient-1" gradientUnits="userSpaceOnUse" x1="472.9609375" y1="410.1875" x2="472.9609375" y2="440.046875" gradientTransform="matrix(0.9622602568595626, -0.2721291275572886, 0.09776879599251387, 0.3457076695345854, -21.58050053950977, 409.8889464779667)">
                <stop offset="0" style="stop-color: #c9872b"/>
                <stop offset="1" style="stop-color: #754f19"/>
              </linearGradient><linearGradient id="gradient-2" gradientUnits="userSpaceOnUse" x1="472.9609375" y1="410.1875" x2="472.9609375" y2="440.046875" gradientTransform="matrix(0.7952109229088016, -0.6063321852439719, 0.2406589350752554, 0.31562668829518203, -3.654506303153113, 582.0892405066534)">
                <stop offset="0" style="stop-color: #e49931"/>
                <stop offset="1" style="stop-color: #9b6314"/>
              </linearGradient><linearGradient id="gradient-3" gradientUnits="userSpaceOnUse" x1="472.9609375" y1="410.1875" x2="472.9609375" y2="440.046875" gradientTransform="matrix(0.9919393039343822, -0.12671618929307293, 0.0451223178744006, 0.3532285993073958, -10.65401169297381, 337.355572349245)">
                <stop offset="0" style="stop-color: #ed9d26"/>
                <stop offset="1" style="stop-color: #a0650d"/>
              </linearGradient></defs>

<path d="M 700 222.6999969482422 L 700 222.6999969482422 L 700 222.6999969482422 Z" fill="#66422E" transform="matrix(1, 0, 0, 1, -214.38497924804688, -46.34355163574219)"/><path d="M 700 222.6999969482422 L 700 222.6999969482422 L 700 222.6999969482422 Z" fill="#66422E" transform="matrix(1, 0, 0, 1, -214.38497924804688, -46.34355163574219)"/>

<g transform="matrix(1.251150369644165, 0, 0, 1.251150369644165, -236.55593872070312, -541.6331787109375)">
		
		
		
		
		
		
		
		
		
		
		
	<path d="M 314.5236511230469 863.0499877929688 C 314.16363525390625 862.6500244140625 313.7803039550781 862.3466796875 313.3736572265625 862.1400146484375 C 312.96697998046875 861.9400024414062 312.5303039550781 861.8233642578125 312.06365966796875 861.7899780273438 L 312.06365966796875 859.469970703125 C 313.810302734375 859.5499877929688 315.2769775390625 860.1666870117188 316.4636535644531 861.3200073242188 L 314.5236511230469 863.0499877929688 M 312.06365966796875 874.7999877929688 C 312.5303039550781 874.7533569335938 312.9703063964844 874.6266479492188 313.3836364746094 874.4199829101562 C 313.7969665527344 874.219970703125 314.1769714355469 873.92333984375 314.5236511230469 873.530029296875 L 316.4636535644531 875.239990234375 C 315.87030029296875 875.8200073242188 315.20697021484375 876.2666625976562 314.4736328125 876.5800170898438 C 313.7403259277344 876.893310546875 312.9369812011719 877.0733032226562 312.06365966796875 877.1199951171875 L 312.06365966796875 874.7999877929688 M 304.4636535644531 868.280029296875 C 304.4636535644531 866.893310546875 304.6336364746094 865.6666870117188 304.9736328125 864.5999755859375 C 305.3069763183594 863.5399780273438 305.77032470703125 862.643310546875 306.3636474609375 861.9099731445312 C 306.95697021484375 861.1699829101562 307.656982421875 860.5999755859375 308.4636535644531 860.2000122070312 C 309.2636413574219 859.7933349609375 310.14031982421875 859.5499877929688 311.0936584472656 859.469970703125 L 311.0936584472656 861.8099975585938 C 310.580322265625 861.8900146484375 310.09698486328125 862.066650390625 309.6436462402344 862.3400268554688 C 309.1903076171875 862.6133422851562 308.79364013671875 863.0066528320312 308.4536437988281 863.52001953125 C 308.10699462890625 864.0399780273438 307.83697509765625 864.693359375 307.6436462402344 865.47998046875 C 307.4436340332031 866.2666625976562 307.33697509765625 867.2000122070312 307.3236389160156 868.280029296875 C 307.33697509765625 869.3733520507812 307.4436340332031 870.3099975585938 307.6436462402344 871.0900268554688 C 307.83697509765625 871.8766479492188 308.10699462890625 872.5333251953125 308.4536437988281 873.0599975585938 C 308.79364013671875 873.5933227539062 309.1936340332031 874 309.6536560058594 874.280029296875 C 310.1136474609375 874.5599975585938 310.5936584472656 874.7333374023438 311.0936584472656 874.7999877929688 L 311.0936584472656 877.0900268554688 C 310.14031982421875 877.030029296875 309.2636413574219 876.7966918945312 308.4636535644531 876.3900146484375 C 307.656982421875 875.9833374023438 306.95697021484375 875.413330078125 306.3636474609375 874.6799926757812 C 305.77032470703125 873.9466552734375 305.3069763183594 873.0433349609375 304.9736328125 871.969970703125 C 304.6336364746094 870.9033203125 304.4636535644531 869.67333984375 304.4636535644531 868.280029296875 ZM 334.6468200683594 877 L 331.746826171875 877 L 327.2668151855469 864.0599975585938 L 322.746826171875 877 L 319.81683349609375 877 L 325.8568115234375 859.75 L 328.6468200683594 859.75 L 334.6468200683594 877 M 328.81683349609375 871.52001953125 L 329.496826171875 873.4099731445312 L 325.0168151855469 873.4099731445312 L 325.67681884765625 871.52001953125 L 328.81683349609375 871.52001953125 ZM 351.4720458984375 859.72998046875 L 351.4720458984375 877 L 348.66204833984375 877 L 348.66204833984375 869.219970703125 L 342.14202880859375 869.219970703125 L 342.14202880859375 867.2999877929688 L 348.66204833984375 867.2999877929688 L 348.66204833984375 859.72998046875 L 351.4720458984375 859.72998046875 M 338.3220520019531 859.72998046875 L 341.1820373535156 859.72998046875 L 341.1820373535156 877 L 338.3220520019531 877 L 338.3220520019531 859.72998046875 ZM 369.98291015625 877 L 367.0829162597656 877 L 362.6029052734375 864.0599975585938 L 358.0829162597656 877 L 355.1529235839844 877 L 361.1929016113281 859.75 L 363.98291015625 859.75 L 369.98291015625 877 M 364.1529235839844 871.52001953125 L 364.8329162597656 873.4099731445312 L 360.3529052734375 873.4099731445312 L 361.0129089355469 871.52001953125 L 364.1529235839844 871.52001953125 ZM 382.3781433105469 859.72998046875 L 385.588134765625 859.72998046875 L 380.4581298828125 869.969970703125 L 380.4581298828125 877 L 377.59814453125 877 L 377.59814453125 871.22998046875 L 382.3781433105469 859.72998046875 M 375.9381408691406 859.72998046875 L 378.5381164550781 866.4500122070312 L 377.26812744140625 869.52001953125 L 372.7281188964844 859.72998046875 L 375.9381408691406 859.72998046875 ZM 403.1163635253906 877 L 400.21636962890625 877 L 395.7363586425781 864.0599975585938 L 391.21636962890625 877 L 388.286376953125 877 L 394.32635498046875 859.75 L 397.1163635253906 859.75 L 403.1163635253906 877 M 397.286376953125 871.52001953125 L 397.96636962890625 873.4099731445312 L 393.4863586425781 873.4099731445312 L 394.1463623046875 871.52001953125 L 397.286376953125 871.52001953125 ZM 427.32208251953125 877 L 424.4220886230469 877 L 419.94207763671875 864.0599975585938 L 415.4220886230469 877 L 412.4920959472656 877 L 418.5320739746094 859.75 L 421.32208251953125 859.75 L 427.32208251953125 877 M 421.4920959472656 871.52001953125 L 422.1720886230469 873.4099731445312 L 417.69207763671875 873.4099731445312 L 418.3520812988281 871.52001953125 L 421.4920959472656 871.52001953125 ZM 440.47296142578125 863.0499877929688 C 440.09295654296875 862.5966796875 439.6629638671875 862.27001953125 439.1829528808594 862.0700073242188 C 438.6962890625 861.8699951171875 438.1962890625 861.77001953125 437.6829528808594 861.77001953125 L 437.58294677734375 861.77001953125 L 437.58294677734375 859.4500122070312 L 437.6129455566406 859.4500122070312 C 438.5462951660156 859.4500122070312 439.41961669921875 859.6033325195312 440.23297119140625 859.9099731445312 C 441.0462951660156 860.2233276367188 441.77294921875 860.693359375 442.4129638671875 861.3200073242188 L 440.47296142578125 863.0499877929688 M 430.4129638671875 868.280029296875 C 430.4129638671875 866.9400024414062 430.5696105957031 865.75 430.8829650878906 864.7100219726562 C 431.1962890625 863.6699829101562 431.62628173828125 862.7866821289062 432.1729431152344 862.0599975585938 C 432.7196350097656 861.3333129882812 433.37628173828125 860.760009765625 434.1429443359375 860.3400268554688 C 434.9096374511719 859.913330078125 435.7362976074219 859.6466674804688 436.6229553222656 859.5399780273438 L 436.6229553222656 861.8800048828125 C 436.1562805175781 862.0066528320312 435.72296142578125 862.219970703125 435.3229675292969 862.52001953125 C 434.9229431152344 862.8133544921875 434.5729675292969 863.2233276367188 434.27294921875 863.75 C 433.9662780761719 864.27001953125 433.7262878417969 864.9000244140625 433.5529479980469 865.6400146484375 C 433.379638671875 866.3866577148438 433.2862854003906 867.2666625976562 433.27294921875 868.280029296875 C 433.2862854003906 869.2933349609375 433.379638671875 870.183349609375 433.5529479980469 870.9500122070312 C 433.7262878417969 871.7166748046875 433.9662780761719 872.3766479492188 434.27294921875 872.9299926757812 C 434.5729675292969 873.489990234375 434.9229431152344 873.933349609375 435.3229675292969 874.260009765625 C 435.72296142578125 874.586669921875 436.1562805175781 874.8133544921875 436.6229553222656 874.9400024414062 L 436.6229553222656 877.0700073242188 C 435.7362976074219 876.9633178710938 434.9096374511719 876.693359375 434.1429443359375 876.260009765625 C 433.37628173828125 875.8333129882812 432.7196350097656 875.2533569335938 432.1729431152344 874.52001953125 C 431.62628173828125 873.780029296875 431.1962890625 872.893310546875 430.8829650878906 871.8599853515625 C 430.5696105957031 870.8200073242188 430.4129638671875 869.6266479492188 430.4129638671875 868.280029296875 M 443.3029479980469 868.0900268554688 L 443.3029479980469 874.77001953125 C 442.9429626464844 875.2233276367188 442.54296875 875.5966796875 442.10296630859375 875.8900146484375 C 441.6562805175781 876.1766967773438 441.186279296875 876.413330078125 440.6929626464844 876.5999755859375 C 440.1996154785156 876.7866821289062 439.6929626464844 876.9199829101562 439.1729431152344 877 C 438.64630126953125 877.0800170898438 438.12628173828125 877.1199951171875 437.6129455566406 877.1199951171875 L 437.58294677734375 877.1199951171875 L 437.58294677734375 875.0499877929688 C 437.7696228027344 875.0499877929688 437.9996337890625 875.0399780273438 438.27294921875 875.02001953125 C 438.5529479980469 874.9933471679688 438.8363037109375 874.9533081054688 439.1229553222656 874.9000244140625 C 439.4096374511719 874.8466796875 439.6829528808594 874.7733154296875 439.9429626464844 874.6799926757812 C 440.2029724121094 874.586669921875 440.3929443359375 874.4533081054688 440.5129699707031 874.280029296875 L 440.5129699707031 870.02001953125 L 437.58294677734375 870.02001953125 L 437.58294677734375 868.0900268554688 L 443.3029479980469 868.0900268554688 ZM 449.9800109863281 868 C 449.9800109863281 869.2000122070312 450.05999755859375 870.219970703125 450.2200012207031 871.0599975585938 C 450.37335205078125 871.893310546875 450.6000061035156 872.5800170898438 450.9000244140625 873.1199951171875 C 451.193359375 873.6599731445312 451.54669189453125 874.0633544921875 451.96002197265625 874.3300170898438 C 452.37335205078125 874.5966796875 452.84002685546875 874.7533569335938 453.3600158691406 874.7999877929688 L 453.3600158691406 877.1199951171875 C 452.40667724609375 877.0533447265625 451.5433349609375 876.8233032226562 450.77001953125 876.4299926757812 C 449.9966735839844 876.030029296875 449.3433532714844 875.4566650390625 448.80999755859375 874.7100219726562 C 448.27667236328125 873.969970703125 447.86334228515625 873.0599975585938 447.57000732421875 871.97998046875 C 447.27001953125 870.9066772460938 447.1200256347656 869.67333984375 447.1200256347656 868.280029296875 L 447.1200256347656 859.72998046875 L 449.9800109863281 859.72998046875 L 449.9800109863281 868 M 460.5500183105469 859.72998046875 L 460.5500183105469 868.280029296875 C 460.5500183105469 869.67333984375 460.4033508300781 870.9066772460938 460.1100158691406 871.97998046875 C 459.80999755859375 873.0599975585938 459.3900146484375 873.969970703125 458.8500061035156 874.7100219726562 C 458.30999755859375 875.4566650390625 457.6600036621094 876.030029296875 456.9000244140625 876.4299926757812 C 456.1333312988281 876.8233032226562 455.2733459472656 877.0533447265625 454.32000732421875 877.1199951171875 L 454.32000732421875 874.7999877929688 C 454.8333435058594 874.7333374023438 455.29669189453125 874.5733032226562 455.71002197265625 874.3200073242188 C 456.12335205078125 874.0599975585938 456.4800109863281 873.663330078125 456.7799987792969 873.1300048828125 C 457.0733337402344 872.6033325195312 457.3033447265625 871.9199829101562 457.4700012207031 871.0800170898438 C 457.6366882324219 870.2466430664062 457.7200012207031 869.219970703125 457.7200012207031 868 L 457.7200012207031 859.72998046875 L 460.5500183105469 859.72998046875 ZM 474.25970458984375 859.72998046875 L 477.11968994140625 859.72998046875 L 477.11968994140625 877 L 474.25970458984375 877 L 468.44970703125 866.780029296875 L 468.44970703125 861.3900146484375 L 474.25970458984375 871.6300048828125 L 474.25970458984375 859.72998046875 M 464.62969970703125 877 L 464.62969970703125 859.72998046875 L 467.48968505859375 859.72998046875 L 467.48968505859375 877 L 464.62969970703125 877 ZM 491.1573181152344 863.0499877929688 C 490.7773132324219 862.5966796875 490.3473205566406 862.27001953125 489.8673095703125 862.0700073242188 C 489.3806457519531 861.8699951171875 488.8806457519531 861.77001953125 488.3673095703125 861.77001953125 L 488.2673034667969 861.77001953125 L 488.2673034667969 859.4500122070312 L 488.29730224609375 859.4500122070312 C 489.23065185546875 859.4500122070312 490.1039733886719 859.6033325195312 490.9173278808594 859.9099731445312 C 491.73065185546875 860.2233276367188 492.4573059082031 860.693359375 493.0973205566406 861.3200073242188 L 491.1573181152344 863.0499877929688 M 481.0973205566406 868.280029296875 C 481.0973205566406 866.9400024414062 481.25396728515625 865.75 481.56732177734375 864.7100219726562 C 481.8806457519531 863.6699829101562 482.3106384277344 862.7866821289062 482.8572998046875 862.0599975585938 C 483.40399169921875 861.3333129882812 484.0606384277344 860.760009765625 484.8273010253906 860.3400268554688 C 485.593994140625 859.913330078125 486.420654296875 859.6466674804688 487.30731201171875 859.5399780273438 L 487.30731201171875 861.8800048828125 C 486.84063720703125 862.0066528320312 486.4073181152344 862.219970703125 486.00732421875 862.52001953125 C 485.6072998046875 862.8133544921875 485.25732421875 863.2233276367188 484.9573059082031 863.75 C 484.650634765625 864.27001953125 484.41064453125 864.9000244140625 484.2373046875 865.6400146484375 C 484.0639953613281 866.3866577148438 483.97064208984375 867.2666625976562 483.9573059082031 868.280029296875 C 483.97064208984375 869.2933349609375 484.0639953613281 870.183349609375 484.2373046875 870.9500122070312 C 484.41064453125 871.7166748046875 484.650634765625 872.3766479492188 484.9573059082031 872.9299926757812 C 485.25732421875 873.489990234375 485.6072998046875 873.933349609375 486.00732421875 874.260009765625 C 486.4073181152344 874.586669921875 486.84063720703125 874.8133544921875 487.30731201171875 874.9400024414062 L 487.30731201171875 877.0700073242188 C 486.420654296875 876.9633178710938 485.593994140625 876.693359375 484.8273010253906 876.260009765625 C 484.0606384277344 875.8333129882812 483.40399169921875 875.2533569335938 482.8572998046875 874.52001953125 C 482.3106384277344 873.780029296875 481.8806457519531 872.893310546875 481.56732177734375 871.8599853515625 C 481.25396728515625 870.8200073242188 481.0973205566406 869.6266479492188 481.0973205566406 868.280029296875 M 493.9873046875 868.0900268554688 L 493.9873046875 874.77001953125 C 493.6273193359375 875.2233276367188 493.2273254394531 875.5966796875 492.7873229980469 875.8900146484375 C 492.34063720703125 876.1766967773438 491.8706359863281 876.413330078125 491.3773193359375 876.5999755859375 C 490.88397216796875 876.7866821289062 490.3773193359375 876.9199829101562 489.8572998046875 877 C 489.3306579589844 877.0800170898438 488.8106384277344 877.1199951171875 488.29730224609375 877.1199951171875 L 488.2673034667969 877.1199951171875 L 488.2673034667969 875.0499877929688 C 488.4539794921875 875.0499877929688 488.6839904785156 875.0399780273438 488.9573059082031 875.02001953125 C 489.2373046875 874.9933471679688 489.5206604003906 874.9533081054688 489.80731201171875 874.9000244140625 C 490.093994140625 874.8466796875 490.3673095703125 874.7733154296875 490.6273193359375 874.6799926757812 C 490.8873291015625 874.586669921875 491.0773010253906 874.4533081054688 491.19732666015625 874.280029296875 L 491.19732666015625 870.02001953125 L 488.2673034667969 870.02001953125 L 488.2673034667969 868.0900268554688 L 493.9873046875 868.0900268554688 ZM 518.6148071289062 877 L 515.7147827148438 877 L 511.23480224609375 864.0599975585938 L 506.7148132324219 877 L 503.7848205566406 877 L 509.8247985839844 859.75 L 512.6148071289062 859.75 L 518.6148071289062 877 M 512.7847900390625 871.52001953125 L 513.4647827148438 873.4099731445312 L 508.98480224609375 873.4099731445312 L 509.6448059082031 871.52001953125 L 512.7847900390625 871.52001953125 ZM 525.1300048828125 859.72998046875 L 525.1300048828125 874.8699951171875 L 533.0700073242188 874.8699951171875 L 533.0700073242188 877 L 522.27001953125 877 L 522.27001953125 859.72998046875 L 525.1300048828125 859.72998046875 ZM 538.5545654296875 868 C 538.5545654296875 869.2000122070312 538.634521484375 870.219970703125 538.7945556640625 871.0599975585938 C 538.9478759765625 871.893310546875 539.174560546875 872.5800170898438 539.4745483398438 873.1199951171875 C 539.7678833007812 873.6599731445312 540.1212158203125 874.0633544921875 540.5345458984375 874.3300170898438 C 540.9478759765625 874.5966796875 541.41455078125 874.7533569335938 541.9345092773438 874.7999877929688 L 541.9345092773438 877.1199951171875 C 540.981201171875 877.0533447265625 540.1178588867188 876.8233032226562 539.3445434570312 876.4299926757812 C 538.5712280273438 876.030029296875 537.9178466796875 875.4566650390625 537.384521484375 874.7100219726562 C 536.8511962890625 873.969970703125 536.4378662109375 873.0599975585938 536.14453125 871.97998046875 C 535.8445434570312 870.9066772460938 535.6945190429688 869.67333984375 535.6945190429688 868.280029296875 L 535.6945190429688 859.72998046875 L 538.5545654296875 859.72998046875 L 538.5545654296875 868 M 549.12451171875 859.72998046875 L 549.12451171875 868.280029296875 C 549.12451171875 869.67333984375 548.9778442382812 870.9066772460938 548.6845092773438 871.97998046875 C 548.384521484375 873.0599975585938 547.9645385742188 873.969970703125 547.424560546875 874.7100219726562 C 546.884521484375 875.4566650390625 546.2345581054688 876.030029296875 545.4745483398438 876.4299926757812 C 544.7078857421875 876.8233032226562 543.847900390625 877.0533447265625 542.89453125 877.1199951171875 L 542.89453125 874.7999877929688 C 543.4078979492188 874.7333374023438 543.8712158203125 874.5733032226562 544.2845458984375 874.3200073242188 C 544.6978759765625 874.0599975585938 545.0545654296875 873.663330078125 545.3545532226562 873.1300048828125 C 545.6478881835938 872.6033325195312 545.8778686523438 871.9199829101562 546.0445556640625 871.0800170898438 C 546.211181640625 870.2466430664062 546.2945556640625 869.219970703125 546.2945556640625 868 L 546.2945556640625 859.72998046875 L 549.12451171875 859.72998046875 ZM 553.2042236328125 859.72998046875 L 556.0642700195312 859.72998046875 L 560.7042236328125 870.3900146484375 L 560.7042236328125 874.72998046875 L 559.9542236328125 874.72998046875 L 556.0642700195312 865.1199951171875 L 556.0642700195312 877 L 553.2042236328125 877 L 553.2042236328125 859.72998046875 M 566.3042602539062 859.72998046875 L 569.1642456054688 859.72998046875 L 569.1642456054688 877 L 566.3042602539062 877 L 566.3042602539062 865.1199951171875 L 562.4342651367188 874.72998046875 L 561.6642456054688 874.72998046875 L 561.6642456054688 870.4400024414062 L 566.3042602539062 859.72998046875 ZM 576.3733520507812 877 L 573.5133666992188 877 L 573.5133666992188 859.72998046875 L 576.3733520507812 859.72998046875 L 576.3733520507812 877 ZM 590.3204956054688 859.72998046875 L 593.1805419921875 859.72998046875 L 593.1805419921875 877 L 590.3204956054688 877 L 584.510498046875 866.780029296875 L 584.510498046875 861.3900146484375 L 590.3204956054688 871.6300048828125 L 590.3204956054688 859.72998046875 M 580.6904907226562 877 L 580.6904907226562 859.72998046875 L 583.550537109375 859.72998046875 L 583.550537109375 877 L 580.6904907226562 877 ZM 600.3681030273438 877 L 597.5081176757812 877 L 597.5081176757812 859.72998046875 L 600.3681030273438 859.72998046875 L 600.3681030273438 877 ZM 607.3052978515625 868 C 607.3052978515625 869.2000122070312 607.38525390625 870.219970703125 607.5452880859375 871.0599975585938 C 607.6986083984375 871.893310546875 607.92529296875 872.5800170898438 608.2252807617188 873.1199951171875 C 608.5186157226562 873.6599731445312 608.8719482421875 874.0633544921875 609.2852783203125 874.3300170898438 C 609.6986083984375 874.5966796875 610.165283203125 874.7533569335938 610.6852416992188 874.7999877929688 L 610.6852416992188 877.1199951171875 C 609.73193359375 877.0533447265625 608.8685913085938 876.8233032226562 608.0952758789062 876.4299926757812 C 607.3219604492188 876.030029296875 606.6685791015625 875.4566650390625 606.13525390625 874.7100219726562 C 605.6019287109375 873.969970703125 605.1885986328125 873.0599975585938 604.895263671875 871.97998046875 C 604.5952758789062 870.9066772460938 604.4452514648438 869.67333984375 604.4452514648438 868.280029296875 L 604.4452514648438 859.72998046875 L 607.3052978515625 859.72998046875 L 607.3052978515625 868 M 617.875244140625 859.72998046875 L 617.875244140625 868.280029296875 C 617.875244140625 869.67333984375 617.7285766601562 870.9066772460938 617.4352416992188 871.97998046875 C 617.13525390625 873.0599975585938 616.7152709960938 873.969970703125 616.17529296875 874.7100219726562 C 615.63525390625 875.4566650390625 614.9852905273438 876.030029296875 614.2252807617188 876.4299926757812 C 613.4586181640625 876.8233032226562 612.5986328125 877.0533447265625 611.645263671875 877.1199951171875 L 611.645263671875 874.7999877929688 C 612.1586303710938 874.7333374023438 612.6219482421875 874.5733032226562 613.0352783203125 874.3200073242188 C 613.4486083984375 874.0599975585938 613.8052978515625 873.663330078125 614.1052856445312 873.1300048828125 C 614.3986206054688 872.6033325195312 614.6286010742188 871.9199829101562 614.7952880859375 871.0800170898438 C 614.9619140625 870.2466430664062 615.0452880859375 869.219970703125 615.0452880859375 868 L 615.0452880859375 859.72998046875 L 617.875244140625 859.72998046875 ZM 621.9549560546875 859.72998046875 L 624.8150024414062 859.72998046875 L 629.4549560546875 870.3900146484375 L 629.4549560546875 874.72998046875 L 628.7049560546875 874.72998046875 L 624.8150024414062 865.1199951171875 L 624.8150024414062 877 L 621.9549560546875 877 L 621.9549560546875 859.72998046875 M 635.0549926757812 859.72998046875 L 637.9149780273438 859.72998046875 L 637.9149780273438 877 L 635.0549926757812 877 L 635.0549926757812 865.1199951171875 L 631.1849975585938 874.72998046875 L 630.4149780273438 874.72998046875 L 630.4149780273438 870.4400024414062 L 635.0549926757812 859.72998046875 Z" transform="matrix(1.8238506317138672, 0, 0, 1.8238506317138672, -249.30491638183594, -696.8746337890625)" style="fill: rgb(102, 66, 46); white-space: pre; color: rgb(102, 66, 46); fill-opacity: 1;"/></g><path fill="#CB8000" d="M271.5,591.2L159.3,760.1h224.3L271.5,591.2z M271.5,667.4l38.8,58.4h-77.5L271.5,667.4z" transform="matrix(2.5011916160583496, 0, 0, 2.5011916160583496, -148.55886840820312, -1372.5069580078125)"/><path d="M 271.5 591.2000122070312 L 271.5 667.4000244140625 L 212.3000030517578 680.4000244140625 Z" fill="#FEC158" transform="matrix(2.5011916160583496, 0, 0, 2.5011916160583496, -148.55886840820312, -1372.5069580078125)" style="fill: rgb(237, 157, 38);"/><path d="M 271.5 667.4000244140625 L 232.6999969482422 725.7999877929688 L 212.3000030517578 680.4000244140625 Z" fill="#66422E" transform="matrix(2.5011916160583496, 0, 0, 2.5011916160583496, -148.55886840820312, -1372.5069580078125)"/><path d="M 212.3000030517578 680.4000244140625 L 232.6999969482422 725.7999877929688 L 159.3000030517578 760.0999755859375 Z" fill="#E0A280" transform="matrix(2.5011916160583496, 0, 0, 2.5011916160583496, -148.55886840820312, -1372.5069580078125)"/><path d="M 232.6999969482422 725.7999877929688 L 259.1000061035156 760 L 159.3000030517578 760.0999755859375 Z" fill="#66422E" transform="matrix(2.5011916160583496, 0, 0, 2.5011916160583496, -148.55886840820312, -1372.5069580078125)"/><path d="M 259.1000061035156 760 L 310.20001220703125 725.7999877929688 L 383.6000061035156 760.0999755859375 Z" fill="#FEC158" transform="matrix(2.5011916160583496, 0, 0, 2.5011916160583496, -148.55886840820312, -1372.5069580078125)" style="fill: rgb(237, 157, 38);"/><path d="M 310.20001220703125 725.7999877929688 L 328.6000061035156 678.5 L 271.5 667.4000244140625 Z" fill="#E0A280" transform="matrix(2.5011916160583496, 0, 0, 2.5011916160583496, -148.55886840820312, -1372.5069580078125)"/><path d="M 271.5 667.4000244140625 L 300 634.2000122070312 L 328.6000061035156 678.5 Z" fill="#66422E" transform="matrix(2.5011916160583496, 0, 0, 2.5011916160583496, -148.55886840820312, -1372.5069580078125)"/>


<path d="M 481.9869689941406 423.1199951171875 L 478.2469787597656 423.32000732421875 C 478.233642578125 422.586669921875 478.12030029296875 421.8733215332031 477.906982421875 421.17999267578125 C 477.6936340332031 420.4866638183594 477.38031005859375 419.8666687011719 476.96697998046875 419.32000732421875 C 476.5469665527344 418.7799987792969 476.0303039550781 418.34332275390625 475.4169921875 418.010009765625 C 474.80364990234375 417.6766662597656 474.0903015136719 417.510009765625 473.2769775390625 417.510009765625 C 472.56365966796875 417.510009765625 471.9302978515625 417.6266784667969 471.3769836425781 417.8599853515625 C 470.8236389160156 418.086669921875 470.3336486816406 418.39666748046875 469.906982421875 418.7900085449219 C 469.4803161621094 419.1766662597656 469.1169738769531 419.63665771484375 468.8169860839844 420.1700134277344 C 468.5169677734375 420.6966552734375 468.2736511230469 421.2533264160156 468.08697509765625 421.8399963378906 C 467.9002990722656 422.4333190917969 467.7636413574219 423.0433349609375 467.6769714355469 423.6700134277344 C 467.5903015136719 424.2966613769531 467.5469665527344 424.90667724609375 467.5469665527344 425.5 C 467.5469665527344 426.1266784667969 467.5836486816406 426.7633361816406 467.656982421875 427.4100036621094 C 467.7303161621094 428.04998779296875 467.8536376953125 428.67333984375 468.0269775390625 429.2799987792969 C 468.2003173828125 429.88665771484375 468.4302978515625 430.4566650390625 468.71697998046875 430.989990234375 C 468.9969787597656 431.5299987792969 469.3503112792969 431.9966735839844 469.7769775390625 432.3900146484375 C 470.2036437988281 432.7900085449219 470.7036437988281 433.1066589355469 471.2769775390625 433.3399963378906 C 471.8503112792969 433.5666809082031 472.5169677734375 433.67999267578125 473.2769775390625 433.67999267578125 C 474.0903015136719 433.67999267578125 474.7969665527344 433.5366516113281 475.39697265625 433.25 C 475.9903259277344 432.9633483886719 476.4869689941406 432.5733337402344 476.8869934082031 432.0799865722656 C 477.2869873046875 431.586669921875 477.5903015136719 431.0133361816406 477.7969665527344 430.3599853515625 C 478.01031494140625 429.70001220703125 478.1369934082031 429.0033264160156 478.1769714355469 428.2699890136719 L 481.84698486328125 428.4599914550781 C 481.5469665527344 429.4333190917969 481.1136474609375 430.3166809082031 480.5469665527344 431.1099853515625 C 479.9803161621094 431.89666748046875 479.3203125 432.5666809082031 478.5669860839844 433.1199951171875 C 477.81365966796875 433.67333984375 476.97698974609375 434.1000061035156 476.0569763183594 434.3999938964844 C 475.1436462402344 434.6933288574219 474.1869812011719 434.8399963378906 473.1869812011719 434.8399963378906 C 471.8003234863281 434.8399963378906 470.560302734375 434.6099853515625 469.46697998046875 434.1499938964844 C 468.3669738769531 433.6833190917969 467.43365478515625 433.0366516113281 466.6669921875 432.2099914550781 C 465.8936462402344 431.3766784667969 465.30364990234375 430.3900146484375 464.89697265625 429.25 C 464.483642578125 428.1099853515625 464.2769775390625 426.8599853515625 464.2769775390625 425.5 C 464.2769775390625 424.20001220703125 464.49365234375 422.989990234375 464.9269714355469 421.8699951171875 C 465.3603210449219 420.75665283203125 465.9703063964844 419.7900085449219 466.7569885253906 418.9700012207031 C 467.54364013671875 418.15667724609375 468.483642578125 417.51666259765625 469.57696533203125 417.04998779296875 C 470.6703186035156 416.5899963378906 471.8736572265625 416.3599853515625 473.1869812011719 416.3599853515625 C 474.233642578125 416.3599853515625 475.233642578125 416.51666259765625 476.1869812011719 416.8299865722656 C 477.14697265625 417.13665771484375 478.0136413574219 417.5799865722656 478.7869873046875 418.1600036621094 C 479.5669860839844 418.7466735839844 480.233642578125 419.4566650390625 480.7869873046875 420.2900085449219 C 481.34698486328125 421.1233215332031 481.7469787597656 422.0666809082031 481.9869689941406 423.1199951171875 Z" transform="matrix(5.475755214691162, 0, 0, 5.475755214691162, -2061.10986328125, -1938.797607421875)" style="fill: url('#gradient-3'); white-space: pre; color: rgb(51, 34, 11);"/></svg>