<?xml version="1.0" encoding="utf-8"?>
<svg id="master-artboard" viewBox="0 0 1068.854736328125 669.47998046875" version="1.1" xmlns="http://www.w3.org/2000/svg" x="0px" y="0px" style="enable-background:new 0 0 1096 780;" width="1068.854736328125px" height="669.47998046875px"><defs><linearGradient id="gradient-0" gradientUnits="userSpaceOnUse" x1="548" y1="0" x2="548" y2="780">
                <stop offset="0" style="stop-color: #ffffff"/>
                <stop offset="1" style="stop-color: #cccccc"/>
              </linearGradient></defs><rect id="ee-background" x="0" y="0" width="1068.854736328125" height="669.47998046875" style="fill: rgb(164, 161, 163); fill-opacity: 0.45; pointer-events: none;"/>

<path d="M 293.5 213.199997 A 119.199997 119.199997 0 0 1 174.300003 332.399994 A 119.199997 119.199997 0 0 1 55.100006 213.199997 A 119.199997 119.199997 0 0 1 174.300003 94 A 119.199997 119.199997 0 0 1 293.5 213.199997 Z" class="st0" style="fill: rgb(241, 242, 242);" transform="matrix(0.7804045140926825, 0, 0, 0.7804045140926825, -5.350810530699137, 24.51986218967339)"/><path d="M 547.199997 213.199997 A 119.199997 119.199997 0 0 1 428 332.399994 A 119.199997 119.199997 0 0 1 308.800003 213.199997 A 119.199997 119.199997 0 0 1 428 94 A 119.199997 119.199997 0 0 1 547.199997 213.199997 Z" class="st0" style="fill: rgb(241, 242, 242);" transform="matrix(0.8454697216154906, 0, 0, 0.8454697216154906, 30.26842189377451, 2.892189095442916)"/><path d="M 800.900009 213.199997 A 119.199997 119.199997 0 0 1 681.700012 332.399994 A 119.199997 119.199997 0 0 1 562.500015 213.199997 A 119.199997 119.199997 0 0 1 681.700012 94 A 119.199997 119.199997 0 0 1 800.900009 213.199997 Z" class="st0" style="fill: rgb(241, 242, 242);" transform="matrix(0.788537865130122, 0, 0, 0.788537865130122, 115.06958293718972, 8.243732754315356)"/><path d="M 286.5 209.199997 A 119.199997 119.199997 0 0 1 167.300003 328.399994 A 119.199997 119.199997 0 0 1 48.100006 209.199997 A 119.199997 119.199997 0 0 1 167.300003 90 A 119.199997 119.199997 0 0 1 286.5 209.199997 Z" class="st1" style="fill: rgb(114, 102, 88);" transform="matrix(0.8292035820776301, 0, 0, 0.8292035820776301, -9.235212724591614, 7.615872946848263)"/><path d="M 540.199997 209.199997 A 119.199997 119.199997 0 0 1 421 328.399994 A 119.199997 119.199997 0 0 1 301.800003 209.199997 A 119.199997 119.199997 0 0 1 421 90 A 119.199997 119.199997 0 0 1 540.199997 209.199997 Z" class="st2" style="fill: rgb(255, 201, 7);" transform="matrix(0.8536645770072938, 0, 0, 0.8536645770072938, 30.59137395129244, 5.407061387715601)"/><path d="M 793.900009 209.199997 A 119.199997 119.199997 0 0 1 674.700012 328.399994 A 119.199997 119.199997 0 0 1 555.500015 209.199997 A 119.199997 119.199997 0 0 1 674.700012 90 A 119.199997 119.199997 0 0 1 793.900009 209.199997 Z" class="st1" style="fill: rgb(114, 102, 88);" transform="matrix(0.8048039674758911, 0, 0, 0.8048039674758911, 106.5022008254731, 7.872911009270524)"/><path d="M 1047.699997 209.199997 A 119.199997 119.199997 0 0 1 928.5 328.399994 A 119.199997 119.199997 0 0 1 809.300003 209.199997 A 119.199997 119.199997 0 0 1 928.5 90 A 119.199997 119.199997 0 0 1 1047.699997 209.199997 Z" class="st2" style="fill: rgb(255, 201, 7);" transform="matrix(0.8536030650138855, 0, 0, 0.8536030650138855, 118.47901153564453, -3.847423553466797)"/><path d="M 286.5 544.900024 A 119.199997 119.199997 0 0 1 167.300003 664.100021 A 119.199997 119.199997 0 0 1 48.100006 544.900024 A 119.199997 119.199997 0 0 1 167.300003 425.700027 A 119.199997 119.199997 0 0 1 286.5 544.900024 Z" class="st2" style="fill: rgb(255, 201, 7);" transform="matrix(0.8292036695321686, 0, 0, 0.8292036695321686, -9.235216931155449, 64.9521887835433)"/><path d="M 540.199997 544.900024 A 119.199997 119.199997 0 0 1 421 664.100021 A 119.199997 119.199997 0 0 1 301.800003 544.900024 A 119.199997 119.199997 0 0 1 421 425.700027 A 119.199997 119.199997 0 0 1 540.199997 544.900024 Z" class="st1" style="fill: rgb(114, 102, 88);" transform="matrix(0.8292029500007629, 0, 0, 0.8292029500007629, 41.7647819519043, 64.95218658447266)"/><path d="M 793.900009 544.900024 A 119.199997 119.199997 0 0 1 674.700012 664.100021 A 119.199997 119.199997 0 0 1 555.500015 544.900024 A 119.199997 119.199997 0 0 1 674.700012 425.700027 A 119.199997 119.199997 0 0 1 793.900009 544.900024 Z" class="st2" style="fill: rgb(255, 201, 7);" transform="matrix(0.8292029500007629, 0, 0, 0.8292029500007629, 100.76478576660158, 62.95218658447266)"/><path d="M 1047.699997 544.900024 A 119.199997 119.199997 0 0 1 928.5 664.100021 A 119.199997 119.199997 0 0 1 809.300003 544.900024 A 119.199997 119.199997 0 0 1 928.5 425.700027 A 119.199997 119.199997 0 0 1 1047.699997 544.900024 Z" class="st1" style="fill: rgb(114, 102, 88);" transform="matrix(0.8292029500007629, 0, 0, 0.8292029500007629, 143.76478576660156, 64.95218658447266)"/><path class="st3" d="M695.9,326.6c55.8-10,98.1-58.7,98.1-117.4c0-17.2-3.7-33.6-10.2-48.3L744,138.1l-124.1,6.8l-14.6,7.2&#10;&#9;&#9;l10.6,8.8l-3.6,119.4L695.9,326.6z" style="fill: rgb(96, 86, 75);" transform="matrix(0.8048039674758911, 0, 0, 0.8048039674758911, 106.5022008254731, 7.872911009270524)"/><path class="st3" d="M284,184.9l-155.5-42.7l-12.7,8.7l-4.7,6.7l18.7,12.7l3.3,70.7l-4,18l-26.7-1.3l2.7,4.7l121.5,50.4&#10;&#9;&#9;c35.7-20.6,59.8-59.2,59.8-103.4C286.5,200.9,285.6,192.8,284,184.9z" style="fill: rgb(96, 86, 75);" transform="matrix(0.8292035820776301, 0, 0, 0.8292035820776301, -9.235212724591614, 7.615872946848263)"/><path class="st4" d="M535.7,176.7l-23.2-11.8l-176,16.7l-4.7,10.4l12.7,8.3l-3.6,62.2L456.9,323c48.3-15.2,83.4-60.4,83.4-113.7&#10;&#9;&#9;C540.2,198,538.7,187.1,535.7,176.7z" style="fill: rgb(251, 173, 24);" transform="matrix(0.8536645770072938, 0, 0, 0.8536645770072938, 30.59137395129244, 5.407061387715601)"/><path class="st4" d="M1047.7,209.2c0-19.9-4.9-38.6-13.5-55.1l-43-27.7l-119.3,5.8l-6.2,162.1l45.2,32.8c5.7,0.8,11.6,1.3,17.5,1.3&#10;&#9;&#9;C994.3,328.5,1047.7,275.1,1047.7,209.2z" style="fill: rgb(251, 173, 24);" transform="matrix(0.8536030650138855, 0, 0, 0.8536030650138855, 118.47901153564453, -3.847423553466797)"/><path class="st3" d="M1047.7,544.9c0-7.5-0.7-14.9-2-22l-141.4-61.8l-11,70.5l-7.6,97l58.8,34.4&#10;&#9;&#9;C1002.7,655.2,1047.7,605.3,1047.7,544.9z" style="fill: rgb(96, 86, 75);" transform="matrix(0.8292029500007629, 0, 0, 0.8292029500007629, 143.76478576660156, 64.95218658447266)"/><path class="st4" d="M793.4,532.9l-192.6-45.4L582,593.2c0,0,90.7,34.3,150.9,55.7c36.4-20.4,61-59.4,61-104.1&#10;&#9;&#9;C794,540.8,793.7,536.8,793.4,532.9z" style="fill: rgb(251, 173, 24);" transform="matrix(0.8292029500007629, 0, 0, 0.8292029500007629, 100.76478576660158, 62.95218658447266)"/><path class="st3" d="M386.5,569.6c-3.3,2.7-20.7,42-20.7,42l10,8l1.9,9c0,0,33.4,18.7,61.7,34.1c57.1-8.9,100.8-58.2,100.8-117.8&#10;&#9;&#9;c0-10-1.2-19.6-3.5-28.9l-76.8-38.4C459.9,477.6,389.9,566.9,386.5,569.6z" style="fill: rgb(96, 86, 75);" transform="matrix(0.8292029500007629, 0, 0, 0.8292029500007629, 41.7647819519043, 64.95218658447266)"/><path class="st4" d="M286.5,544.9c0-20.2-5-39.1-13.8-55.8l-40.1-24.1l-122,4.7l-7.8,157.9l69.3,36.5&#10;&#9;&#9;C235.7,661.4,286.5,609.1,286.5,544.9z" style="fill: rgb(251, 173, 24);" transform="matrix(0.8292036695321686, 0, 0, 0.8292036695321686, -9.235216931155449, 64.9521887835433)"/><path class="st5" d="M904.2,461.1h-18.6v167.5h18.6v-18.8h56.4v17.6h18.6v-66.3h6.4v-20.9h-81.4V461.1z M960.7,561.1v36.5h-56.4&#10;&#9;&#9;v-36.5H960.7z" style="fill: rgb(255, 255, 255);" transform="matrix(0.7685712575912476, 0, 0, 0.7685712575912476, 207.83717346191406, 89.26127624511719)"/><path class="st5" d="M468.6,515.2c0.7-13.1,0.7-24.5-0.9-29.9c-4.8-16.6-84.5-24.5-92.1,0c-2.3,7.6-3,18.4-2.9,29.8&#10;&#9;&#9;c-37.1-5.5-44.4,34-27.3,45.3c17.3,11.5,19.2,30.2,19.2,30.2v17.1c0,2,1.6,3.6,3.6,3.6h4.3c0.3,7.2,1.4,16.4,5.3,17.3&#10;&#9;&#9;c4.4,1,8.8-10.1,11.1-17.3h64.2c2.3,7.1,6.7,18.3,11.1,17.3c3.9-0.9,5-10.1,5.3-17.3h4.6c2,0,3.6-1.6,3.6-3.6v-18.8&#10;&#9;&#9;c1-4.9,4.8-19.1,18.9-28.5C513.8,549,506.3,509.1,468.6,515.2z" style="fill: rgb(255, 255, 255);" transform="matrix(0.7685712575912476, 0, 0, 0.7685712575912476, 66.75296020507812, 89.26127624511719)"/><path class="st5" d="M510.1,164.3H331.9c-1.6,0-2.8,1.3-2.8,2.8v22c0,1.6,1.3,2.8,2.8,2.8h9.1v70.5h18.3V192h63.6v70.5h12.3v-10.4&#10;&#9;&#9;&#9;h56.3v10.4h12.3V192h6.3c1.6,0,2.8-1.3,2.8-2.8v-22C512.9,165.6,511.7,164.3,510.1,164.3z M435.2,243v-28.7h56.3V243H435.2z&#10;&#9;&#9;&#9; M491.4,208.2h-56.3V192h56.3V208.2z" style="fill: rgb(255, 255, 255);" transform="matrix(0.7630614539202425, 0, 0, 0.7630614539202425, 60.5259554918901, 13.722697386463686)"/><path d="M 466.600012 202.699997 A 3.4 3.4 0 0 1 463.200012 206.099997 A 3.4 3.4 0 0 1 459.800012 202.699997 A 3.4 3.4 0 0 1 463.200012 199.299997 A 3.4 3.4 0 0 1 466.600012 202.699997 Z" class="st5" style="fill: rgb(255, 255, 255);" transform="matrix(0.7630614539202425, 0, 0, 0.7630614539202425, 60.5259554918901, 13.722697386463686)"/><path d="M 445.000006 228.300003 A 3.4 3.4 0 0 1 441.600006 231.700003 A 3.4 3.4 0 0 1 438.200006 228.300003 A 3.4 3.4 0 0 1 441.600006 224.900003 A 3.4 3.4 0 0 1 445.000006 228.300003 Z" class="st5" style="fill: rgb(255, 255, 255);" transform="matrix(0.7630614539202425, 0, 0, 0.7630614539202425, 60.5259554918901, 13.722697386463686)"/><path class="st5" d="M605.3,152.1h7v128.3H626v-12.9h98.5v12.9h13.7V152.1h5.8v-13.9H605.3V152.1z M626,189.1h98.5v30.1H626V189.1&#10;&#9;&#9;&#9;z M626,258.4v-30.1h98.5v30.1H626z M724.5,180.1H626v-28h98.5V180.1z" style="fill: rgb(255, 255, 255);" transform="matrix(0.7228426337242125, 0, 0, 0.7228426337242125, 156.31283569335935, 33.12146377563476)"/><path d="M 680.300012 167.399994 A 5.6 5.6 0 0 1 674.700012 172.999994 A 5.6 5.6 0 0 1 669.100012 167.399994 A 5.6 5.6 0 0 1 674.700012 161.799994 A 5.6 5.6 0 0 1 680.300012 167.399994 Z" class="st5" style="fill: rgb(255, 255, 255);" transform="matrix(0.7228426337242125, 0, 0, 0.7228426337242125, 154.31283569335935, 33.12146377563476)"/><path d="M 680.300012 204.800003 A 5.6 5.6 0 0 1 674.700012 210.400003 A 5.6 5.6 0 0 1 669.100012 204.800003 A 5.6 5.6 0 0 1 674.700012 199.200003 A 5.6 5.6 0 0 1 680.300012 204.800003 Z" class="st5" style="fill: rgb(255, 255, 255);" transform="matrix(0.7228426337242125, 0, 0, 0.7228426337242125, 154.31283569335935, 33.12146377563476)"/><path d="M 680.300012 243.199997 A 5.6 5.6 0 0 1 674.700012 248.799997 A 5.6 5.6 0 0 1 669.100012 243.199997 A 5.6 5.6 0 0 1 674.700012 237.599997 A 5.6 5.6 0 0 1 680.300012 243.199997 Z" class="st5" style="fill: rgb(255, 255, 255);" transform="matrix(0.7228426337242125, 0, 0, 0.7228426337242125, 154.31283569335935, 33.12146377563476)"/><path class="st5" d="M879.7,282.8h46h5.6h46v11.5h14V138.8v-12.3h-14h-97.5h-14v12.3v155.6h14V282.8z M879.7,273.8v-18.9h46v18.9&#10;&#9;&#9;&#9;H879.7z M931.3,273.8v-18.9h46v18.9H931.3z M977.2,245.8h-46v-107h46V245.8z M925.6,138.8v107h-46v-107H925.6z" style="fill: rgb(255, 255, 255);" transform="matrix(0.7228426337242125, 0, 0, 0.7228426337242125, 236.31283569335935, 33.12146377563476)"/><path d="M 919.999976 196 A 4.9 4.9 0 0 1 915.099976 200.9 A 4.9 4.9 0 0 1 910.199975 196 A 4.9 4.9 0 0 1 915.099976 191.1 A 4.9 4.9 0 0 1 919.999976 196 Z" class="st5" style="fill: rgb(255, 255, 255);" transform="matrix(0.7228426337242125, 0, 0, 0.7228426337242125, 236.31283569335935, 33.12146377563476)"/><path d="M 945.499976 196 A 4.9 4.9 0 0 1 940.599976 200.9 A 4.9 4.9 0 0 1 935.699975 196 A 4.9 4.9 0 0 1 940.599976 191.1 A 4.9 4.9 0 0 1 945.499976 196 Z" class="st5" style="fill: rgb(255, 255, 255);" transform="matrix(0.7228426337242125, 0, 0, 0.7228426337242125, 236.31283569335935, 33.12146377563476)"/><path d="M 957.400024 265.100006 A 4.5 4.5 0 0 1 952.900024 269.600006 A 4.5 4.5 0 0 1 948.400024 265.100006 A 4.5 4.5 0 0 1 952.900024 260.600006 A 4.5 4.5 0 0 1 957.400024 265.100006 Z" class="st5" style="fill: rgb(255, 255, 255);" transform="matrix(0.7228426337242125, 0, 0, 0.7228426337242125, 236.31283569335935, 33.12146377563476)"/><path d="M 906.799988 265.100006 A 4.5 4.5 0 0 1 902.299988 269.600006 A 4.5 4.5 0 0 1 897.799988 265.100006 A 4.5 4.5 0 0 1 902.299988 260.600006 A 4.5 4.5 0 0 1 906.799988 265.100006 Z" class="st5" style="fill: rgb(255, 255, 255);" transform="matrix(0.7228426337242125, 0, 0, 0.7228426337242125, 236.31283569335935, 33.12146377563476)"/><path class="st5" d="M220.5,462.2H114.1h-5.6h-5.6v165.2h11.3v-23.4h106.4v23.4h11.3v-23.4v-11.3V473.5v-11.3H220.5z M148.3,473.5&#10;&#9;&#9;v37.9h-34.3v-37.9H148.3z M220.5,553.3h-27.9l0.2-34.7h27.7V553.3z M184.5,553.3h-70.4v-34.7h70.6L184.5,553.3z M114.1,560.6h42.4&#10;&#9;&#9;l-0.2,32.2h-42.2V560.6z M164.4,592.8l0.2-32.2h55.9v32.2H164.4z M220.5,511.4h-64.1v-37.9h64.1V511.4z" style="fill: rgb(255, 255, 255);" transform="matrix(0.768571235518036, 0, 0, 0.768571235518036, 6.363498749210159, 97.01706441975256)"/><path class="st5" d="M224.8,247c-5.8,3.4-11.9,6.1-18,8.1l-6.6-33.1h11.7v-15.9h-5.5v-15.7v-9.7h-11.1h-56.4&#10;&#9;&#9;c-1-16-2.1-31.9-5.8-35.3c-6.9-6.2-29-8.3-28.3,4.8c0.7,13.1,15.8,7.6,15.8,7.6c8.9,29,5.5,86.2,5.5,86.2l0,0l-2.3,8.3&#10;&#9;&#9;c-5.2-1.7-9.8-3.6-13.8-5.4c-7.7-3.5-22.1,5.5-7.6,13.1c67.6,35.2,117.5,8.5,129.3,1.1C243.4,253.8,238.6,238.9,224.8,247z&#10;&#9;&#9; M195.3,190.4v15.7h-54.2c-0.7-4.4-1.2-9.9-1.6-15.7H195.3z M139.8,256.8l9.7-34.8h33.7l7.3,37&#10;&#9;&#9;C172.9,261.8,155.1,260.2,139.8,256.8z" style="fill: rgb(255, 255, 255);" transform="matrix(0.717441804874415, 0, 0, 0.717441804874415, 9.72770431635011, 30.012205368579444)"/><path d="M 767.0999755859375 532.5 L 753.7000122070312 532.5 L 753.7000122070312 546.9000244140625 L 745.7000122070312 546.9000244140625 L 732.4000244140625 546.9000244140625 L 644.2999877929688 546.9000244140625 L 644.2999877929688 524.7999877929688 L 600.7000122070312 524.7999877929688 L 600.7000122070312 487.5 L 582 487.5 L 582 546.9000244140625 L 582 572.9000244140625 L 582 593.2000122070312 L 595.4000244140625 593.2000122070312 L 595.4000244140625 572.9000244140625 L 600.7000122070312 572.9000244140625 L 600.7000122070312 582.7000122070312 L 614.0999755859375 582.7000122070312 L 614.0999755859375 572.9000244140625 L 732.4000244140625 572.9000244140625 L 732.4000244140625 582.7000122070312 L 745.7000122070312 582.7000122070312 L 745.7000122070312 572.9000244140625 L 753.7000122070312 572.9000244140625 L 753.7000122070312 593.2000122070312 L 767.0999755859375 593.2000122070312 L 767.0999755859375 572.9000244140625 L 767.4000244140625 572.9000244140625 L 767.4000244140625 546.9000244140625 L 767.0999755859375 546.9000244140625 Z" class="st5" style="fill: rgb(255, 255, 255);" transform="matrix(0.7685712575912476, 0, 0, 0.7685712575912476, 149.32559204101562, 96.95601654052734)"/>

</svg>